<svg id="Layer_1" enable-background="new 0 0 66 66" height="512" viewBox="0 0 66 66" width="512" xmlns="http://www.w3.org/2000/svg"><g><g><g><g><g><g><g><path d="m11.5 18.3v2.9c0 6.3 5.1 11.5 11.5 11.5 6.3 0 11.5-5.1 11.5-11.5v-2.8" style="fill:none;stroke:#000;stroke-width:2;stroke-linecap:round;stroke-linejoin:round;stroke-miterlimit:10"/></g></g></g></g></g><g><path d="m16 30.3v6.1l-8.5 1.8c-3.2.7-5.5 3.5-5.5 6.8v14c0 2.8 2.3 5 5 5h31.4c2.8 0 5-2.3 5-5v-14c0-3.2-2.2-6-5.4-6.7l-7.8-1.8v-6" style="fill:none;stroke:#000;stroke-width:2;stroke-linecap:round;stroke-linejoin:round;stroke-miterlimit:10"/></g></g><g><path d="m11.4 18.3s1.7-3.2 6.3-6.2c0 0 3.2 6.2 9.7 3.1 2.5-1.2 6-.7 7 3.1 3.4-14.4-4.5-13-4.5-13-3.7-4.4-9.6-3-9.6-3-12.1 2.1-8.8 16-8.9 16" style="fill:none;stroke:#000;stroke-width:2;stroke-linecap:round;stroke-linejoin:round;stroke-miterlimit:10"/></g><g style="fill:none;stroke:#000;stroke-width:2;stroke-linecap:round;stroke-linejoin:round;stroke-miterlimit:10"><path d="m39.5 30.2c0 1.1.9 1.9 1.9 1.9h15.1c1.1 0 1.9-.9 1.9-1.9v-22c0-1.1-.9-1.9-1.9-1.9h-15.1c-1.1 0-1.9.9-1.9 1.9z"/><path d="m63.9 14.2-3 21.8c-.1 1.1-1.1 1.8-2.2 1.6l-14.9-2.1c-1-.1-1.8-1.1-1.6-2.2l.2-1.4h14.2c1.1 0 1.9-.9 1.9-1.9v-18.5l3.8.5c1 .2 1.7 1.2 1.6 2.2z"/><g><g><path d="m43.4 14.4 5.6-4.3 5.5 4.3"/><path d="m44.7 13.5v6.4h8.6v-6.4l-4.3-3.4z"/></g><path d="m44.7 24.4h8.6"/><path d="m44.7 28.2h4.3"/></g><path d="m11.5 37.4 4.8 7.2 6.5-4.2-6.8-4"/><path d="m34.5 37.4-4.8 7.2-6.9-4.2 7.2-4"/><path d="m28.1 64-3.5-13.9c-.3-1-.1-2.1.4-3l2.4-3.8-4.6-2.8-4.7 3 2.2 3.6c.5.9.7 2 .4 3l-3.4 13.9z"/><path d="m38.2 54.5h-6.2v-6.2c2.1 1.7 4.1 1.7 6.2 0z"/></g></g></svg>