<svg id="Layer_1" height="512" viewBox="0 0 500 500" width="512" xmlns="http://www.w3.org/2000/svg"><path d="m98.826 331.958c-.443 0-.888-.075-1.316-.228l-36.577-13.008c-1.567-.557-2.613-2.04-2.613-3.703v-24.081c0-8.219-3.196-15.946-8.999-21.761-7.296-7.289-11.316-16.982-11.316-27.29v-16.251c0-24.587 19.991-44.59 44.563-44.59s44.563 20.003 44.563 44.59v14.623l13.505 13.508c1.771 1.768 2.749 4.114 2.749 6.605 0 5.164-4.19 9.366-9.341 9.366h-6.913v29.019c0 6.646-5.411 12.054-12.061 12.054h-12.313v17.217c0 1.276-.621 2.475-1.664 3.211-.672.474-1.466.719-2.267.719zm-32.646-19.712 28.716 10.213v-15.577c0-2.171 1.76-3.931 3.93-3.931h16.243c2.316 0 4.201-1.881 4.201-4.193v-32.949c0-2.17 1.76-3.93 3.93-3.93h10.843c.816 0 1.48-.676 1.48-1.506 0-.399-.149-.751-.444-1.045l-14.659-14.662c-.737-.736-1.151-1.736-1.151-2.778v-16.251c0-20.253-16.465-36.729-36.703-36.729s-36.703 16.477-36.703 36.729v16.251c0 8.206 3.202 15.926 9.016 21.733 7.288 7.303 11.299 17.003 11.299 27.317v21.308z"/><path d="m98.827 310.806c-15.61 0-28.309-12.694-28.309-28.299 0-2.17 1.76-3.93 3.93-3.93s3.93 1.76 3.93 3.93c0 11.27 9.173 20.438 20.449 20.438 2.17 0 3.93 1.76 3.93 3.931 0 2.17-1.76 3.93-3.93 3.93z"/><path d="m142.714 180.806c-.667 0-1.335-.17-1.936-.51-1.232-.698-1.994-2.004-1.994-3.421v-30.511c-12.853-1.91-22.746-13.021-22.746-26.397v-68.282c0-14.717 11.967-26.69 26.676-26.69h136.555c14.714 0 26.685 11.974 26.685 26.69v68.282c0 14.716-11.971 26.688-26.685 26.688h-78.564l-55.967 33.59c-.623.373-1.323.561-2.024.561zm0-147.952c-10.375 0-18.816 8.447-18.816 18.83v68.282c0 10.378 8.442 18.823 18.817 18.828 2.17.001 3.929 1.76 3.929 3.93v27.208l50.687-30.421c.641-.453 1.423-.717 2.259-.717h79.679c10.38 0 18.825-8.446 18.825-18.828v-68.281c0-10.383-8.445-18.83-18.825-18.83h-136.555z"/><path d="m197.976 474.994h-169.046c-2.17 0-3.93-1.76-3.93-3.93v-75.604c0-31.433 12.236-60.986 34.454-83.218 1.074-1.075 2.671-1.435 4.102-.923l36.418 13.008c.548.195 1.045.511 1.457.922 22.831 22.833 35.404 53.186 35.404 85.464v.535l11.37 12.664c1.855 2.068 5.989 4.558 8.675 5.223l42.049 10.521c1.75.438 2.977 2.01 2.977 3.813v27.596c0 2.169-1.76 3.929-3.93 3.929zm-165.116-7.86h161.186v-20.598l-39.064-9.773c-4.256-1.056-9.688-4.323-12.627-7.602l-12.374-13.783c-.647-.721-1.006-1.655-1.006-2.625v-2.04c0-29.887-11.53-58.008-32.485-79.283l-33.207-11.861c-19.637 20.533-30.423 47.384-30.423 75.891z"/><path d="m132.912 416.678c-1.077 0-2.149-.439-2.924-1.304l-33.361-37.127c-.674-.751-1.007-1.689-1.007-2.625 0-1.076.439-2.149 1.303-2.926 1.613-1.451 4.1-1.318 5.55.297l33.361 37.127c.674.751 1.007 1.689 1.007 2.625 0 1.077-.439 2.149-1.304 2.926-.75.675-1.69 1.007-2.625 1.007z"/><path d="m130.279 473.974c-.66-.597-67.159-60.35-67.831-60.953-.052-.046-.102-.094-.151-.143-5.644-5.637-8.752-13.142-8.752-21.131 0-2.171 1.76-3.931 3.93-3.931s3.93 1.76 3.93 3.931c0 5.854 2.263 11.354 6.375 15.498l67.005 60.211c.824.741 2.089 1.878 2.087 3.581 0 .439-.085.916-.284 1.434l-3.669-1.406z"/><path d="m223.985 475.006h-12.999c-9.341 0-16.94-7.594-16.94-16.927v-14.61c0-1.131.487-2.208 1.338-2.954l13.011-11.415c.717-.629 1.638-.977 2.592-.977h12.999c9.338 0 16.935 7.601 16.935 16.943v13.013c-.001 9.333-7.598 16.927-16.936 16.927zm-22.079-29.757v12.83c0 4.999 4.074 9.066 9.08 9.066h12.999c5.004 0 9.075-4.067 9.075-9.066v-13.013c0-5.009-4.071-9.083-9.075-9.083h-11.519z"/><path d="m401.176 331.958c-.801 0-1.594-.245-2.267-.719-1.043-.736-1.663-1.935-1.663-3.211v-17.217h-12.31c-6.658 0-12.076-5.407-12.076-12.054v-29.019h-6.896c-5.152 0-9.344-4.202-9.344-9.366-.01-2.483.961-4.834 2.732-6.605l13.507-13.508v-14.623c0-24.587 19.992-44.59 44.566-44.59s44.566 20.003 44.566 44.59v16.251c0 10.32-4.021 20.015-11.324 27.297-5.797 5.806-8.991 13.533-8.991 21.754v24.081c0 1.663-1.047 3.146-2.613 3.703l-36.571 13.008c-.428.153-.873.228-1.316.228zm16.251-143.051c-20.239 0-36.706 16.477-36.706 36.729v16.251c0 1.042-.414 2.042-1.151 2.779l-14.658 14.658c-.287.287-.432.635-.43 1.032 0 .846.666 1.521 1.483 1.521h10.826c2.17 0 3.93 1.76 3.93 3.93v32.949c0 2.313 1.892 4.193 4.216 4.193h16.239c2.17 0 3.93 1.76 3.93 3.931v15.577l28.712-10.212v-21.309c0-10.317 4.012-20.019 11.295-27.313 5.819-5.803 9.021-13.521 9.021-21.737v-16.251c-.001-20.251-16.467-36.728-36.707-36.728z"/><path d="m401.176 310.806c-2.171 0-3.93-1.76-3.93-3.93 0-2.171 1.759-3.931 3.93-3.931 11.266 0 20.441-9.157 20.455-20.413 0-.009 0-.017 0-.025 0-2.17 1.76-3.93 3.93-3.93s3.93 1.76 3.93 3.93v.035.011c-.024 15.405-12.44 27.968-27.791 28.248-.174.003-.348.005-.524.005z"/><path d="m471.07 474.994h-169.051c-2.17 0-3.93-1.76-3.93-3.93v-27.596c0-1.803 1.227-3.375 2.976-3.813l42.033-10.519c2.689-.667 6.825-3.158 8.685-5.228l11.375-12.662v-.535c0-32.278 12.572-62.63 35.401-85.464.411-.411.909-.727 1.457-.922l36.409-13.008c1.433-.514 3.028-.152 4.102.922 22.23 22.233 34.473 51.786 34.473 83.221v75.604c0 2.17-1.76 3.93-3.93 3.93zm-165.121-7.86h161.19v-71.674c0-28.509-10.79-55.359-30.441-75.892l-33.198 11.862c-20.953 21.276-32.482 49.396-32.482 79.283v2.04c0 .971-.359 1.904-1.007 2.626l-12.381 13.784c-2.946 3.279-8.377 6.546-12.633 7.602l-39.048 9.771z"/><path d="m367.086 416.678c-.936 0-1.874-.332-2.626-1.007-.863-.777-1.303-1.849-1.303-2.927 0-.936.333-1.874 1.007-2.624l33.364-37.127c1.453-1.616 3.937-1.746 5.551-.297.864.777 1.304 1.85 1.304 2.927 0 .936-.333 1.874-1.007 2.624l-33.365 37.127c-.777.864-1.849 1.304-2.925 1.304z"/><path d="m367.077 474.995c-.419 0-.845-.067-1.264-.209-1.637-.556-2.667-2.083-2.668-3.719 0-.421.067-.848.209-1.267.332-.979.332-.979 11.698-11.192l57.165-51.363c4.112-4.143 6.376-9.644 6.376-15.498 0-2.171 1.76-3.931 3.93-3.931 2.171 0 3.931 1.76 3.931 3.931 0 7.99-3.108 15.494-8.753 21.131-.049.049-.099.097-.15.143-.662.596-65.663 58.994-67.775 60.903-.724.68-1.692 1.071-2.699 1.071z"/><path d="m289.012 475.006h-13.008c-9.339 0-16.938-7.594-16.938-16.927v-13.013c0-9.343 7.599-16.943 16.938-16.943h13.008c.953 0 1.876.348 2.593.977l13.007 11.415c.85.746 1.338 1.823 1.338 2.954v14.61c-.001 9.333-7.599 16.927-16.938 16.927zm-13.008-39.023c-5.005 0-9.077 4.074-9.077 9.083v13.013c0 4.999 4.072 9.066 9.077 9.066h13.008c5.005 0 9.077-4.067 9.077-9.066v-12.83l-10.557-9.266z"/><path d="m249.994 328.697c-16.228 0-30.8-13.209-38.427-34.646-7.958-2.218-13.851-12.206-13.851-24.281 0-6.26 3.468-11.981 8.865-14.994v-8.843c0-.158.009-.317.029-.475 2.667-21.896 21.318-38.407 43.384-38.407 22.061 0 40.721 16.51 43.404 38.404.02.158.028.318.028.478v8.846c5.393 3.016 8.861 8.735 8.868 14.987 0 12.08-5.901 22.069-13.868 24.285-7.628 21.437-22.202 34.646-38.432 34.646zm-35.552-82.519v11.113c0 1.659-1.042 3.14-2.604 3.699-3.745 1.344-6.262 4.872-6.262 8.779 0 9.852 4.723 16.679 9.133 16.875 1.638.073 3.058 1.154 3.563 2.714 6.298 19.417 18.453 31.479 31.721 31.479 13.271 0 25.427-12.062 31.728-31.479.505-1.56 1.925-2.641 3.563-2.714 4.418-.196 9.149-7.024 9.149-16.875-.004-3.901-2.523-7.433-6.27-8.78-1.559-.562-2.599-2.041-2.599-3.698v-11.112c-2.304-17.842-17.555-31.268-35.572-31.268-18.018 0-33.262 13.425-35.55 31.267z"/><path d="m276.02 474.994h-52.023c-2.17 0-3.93-1.76-3.93-3.93 0-2.171 1.76-3.931 3.93-3.931 5.003 0 9.074-4.067 9.074-9.066v-13.013c0-5.008-4.07-9.082-9.074-9.082h-11.52l-11.897 10.439c-.97.852-2.296 1.172-3.547.858l-39.014-9.774c-1.749-.438-2.975-2.01-2.975-3.813v-56.876c0-9.329 6.75-19.43 15.367-22.997l49.007-20.325c1.822-.736 3.429-1.806 4.805-3.189 2.792-2.786 4.323-6.486 4.323-10.429v-1.544c0-1.499.854-2.869 2.2-3.529 1.347-.659 2.951-.495 4.137.423 4.797 3.715 9.883 5.6 15.118 5.6 5.252 0 10.342-1.884 15.126-5.598 1.186-.919 2.792-1.085 4.138-.426 1.349.66 2.202 2.03 2.202 3.53v1.544c0 3.95 1.53 7.649 4.31 10.415 1.382 1.399 2.979 2.466 4.771 3.191l49.046 20.338c8.616 3.569 15.367 13.67 15.367 22.996l.011 56.896c0 1.804-1.228 3.376-2.978 3.813l-39.01 9.754c-1.25.312-2.577-.009-3.546-.859l-11.894-10.439h-11.529c-5.004 0-9.076 4.074-9.076 9.082v13.013c0 4.999 4.074 9.066 9.082 9.066 2.171 0 3.931 1.76 3.931 3.931-.002 2.171-1.762 3.931-3.932 3.931zm-37.729-7.86h23.427c-1.672-2.622-2.641-5.732-2.641-9.066v-13.013c0-9.342 7.598-16.941 16.937-16.941h13.009c.953 0 1.876.347 2.592.976l11.46 10.058 34.034-8.51-.01-53.828c0-6.063-4.914-13.414-10.516-15.735l-49.02-20.326c-2.761-1.12-5.246-2.778-7.358-4.918-2.987-2.974-5.038-6.666-5.991-10.703-4.535 2.359-9.295 3.551-14.214 3.551-4.909 0-9.665-1.193-14.204-3.555-.955 4.033-3.008 7.73-6.012 10.728-2.119 2.13-4.608 3.785-7.389 4.91l-48.977 20.313c-5.701 2.359-10.515 9.564-10.515 15.734v53.81l34.041 8.528 11.461-10.057c.717-.629 1.639-.976 2.592-.976h13c9.337 0 16.934 7.6 16.934 16.941v13.013c0 3.333-.969 6.444-2.64 9.066z"/><path d="m357.28 201.911c-.7 0-1.399-.187-2.021-.56l-55.964-33.577h-78.569c-13.555 0-24.907-10.224-26.407-23.78-.169-1.525.565-3.009 1.88-3.8l1.129-.68c.642-.455 1.425-.72 2.262-.72h79.679c10.38 0 18.825-8.446 18.825-18.828v-68.281c-.002-.157-.034-.311-.055-.465-.04-.289-.077-.579-.101-.87-.086-1.093.288-2.172 1.032-2.977.743-.805 1.79-1.263 2.886-1.263h55.43c14.708 0 26.674 11.972 26.674 26.686v68.288c0 13.377-9.896 24.489-22.749 26.399v30.498c0 1.415-.763 2.723-1.994 3.42-.601.34-1.27.51-1.937.51zm-54.599-41.271 50.67 30.4v-27.196c0-2.17 1.759-3.929 3.928-3.93 10.378-.005 18.821-8.451 18.821-18.83v-68.288c0-10.38-8.439-18.825-18.813-18.825h-51.333v65.996c0 14.716-11.971 26.688-26.685 26.688h-76.409c2.387 7.761 9.537 13.259 17.866 13.259h79.679c.848 0 1.633.269 2.276.726z"/></svg>