<?xml version="1.0" encoding="UTF-8" standalone="no"?>
<!-- Created with Inkscape (http://www.inkscape.org/) -->

<svg
   version="1.1"
   id="svg5328"
   xml:space="preserve"
   width="682.66669"
   height="682.66669"
   viewBox="0 0 682.66669 682.66669"
   xmlns="http://www.w3.org/2000/svg"
   xmlns:svg="http://www.w3.org/2000/svg"><defs
     id="defs5332"><clipPath
       clipPathUnits="userSpaceOnUse"
       id="clipPath5354"><path
         d="M 0,512 H 512 V 0 H 0 Z"
         id="path5352" /></clipPath></defs><g
     id="g5334"
     transform="matrix(1.3333333,0,0,-1.3333333,0,682.66667)"><g
       id="g5336"
       transform="translate(85.0674,197.5)"><path
         d="M 0,0 H 41.607"
         style="fill:none;stroke:#000000;stroke-width:15;stroke-linecap:round;stroke-linejoin:round;stroke-miterlimit:10;stroke-dasharray:none;stroke-opacity:1"
         id="path5338" /></g><g
       id="g5340"
       transform="translate(85.0674,163.9619)"><path
         d="M 0,0 H 101.865"
         style="fill:none;stroke:#000000;stroke-width:15;stroke-linecap:round;stroke-linejoin:round;stroke-miterlimit:10;stroke-dasharray:none;stroke-opacity:1"
         id="path5342" /></g><g
       id="g5344"
       transform="translate(85.0674,136.7119)"><path
         d="M 0,0 H 101.865"
         style="fill:none;stroke:#000000;stroke-width:15;stroke-linecap:round;stroke-linejoin:round;stroke-miterlimit:10;stroke-dasharray:none;stroke-opacity:1"
         id="path5346" /></g><g
       id="g5348"><g
         id="g5350"
         clip-path="url(#clipPath5354)"><g
           id="g5356"
           transform="translate(363.4497,41.5)"><path
             d="m 0,0 h -325.95 c -16.568,0 -30,13.432 -30,30 v 12 c 0,4.418 3.582,8 8,8 h 481 c 4.419,0 8,-3.582 8,-8 V 30 c 0,-16.568 -13.431,-30 -30,-30 H 34.604"
             style="fill:none;stroke:#000000;stroke-width:15;stroke-linecap:round;stroke-linejoin:round;stroke-miterlimit:10;stroke-dasharray:none;stroke-opacity:1"
             id="path5358" /></g><g
           id="g5360"
           transform="translate(38,337.9736)"><path
             d="m 0,0 v 29.526 c 0,13.25 10.75,24 24,24 h 109.264"
             style="fill:none;stroke:#000000;stroke-width:15;stroke-linecap:round;stroke-linejoin:round;stroke-miterlimit:10;stroke-dasharray:none;stroke-opacity:1"
             id="path5362" /></g><g
           id="g5364"
           transform="translate(433.4028,391.5)"><path
             d="m 0,0 h 16.597 c 13.25,0 24,-10.75 24,-24 v -252 c 0,-13.25 -10.75,-24 -24,-24 h -388 c -13.25,0 -24,10.75 -24,24 v 188.241"
             style="fill:none;stroke:#000000;stroke-width:15;stroke-linecap:round;stroke-linejoin:round;stroke-miterlimit:10;stroke-dasharray:none;stroke-opacity:1"
             id="path5366" /></g><g
           id="g5368"
           transform="translate(324.752,391.5)"><path
             d="M 0,0 H 72.93"
             style="fill:none;stroke:#000000;stroke-width:15;stroke-linecap:round;stroke-linejoin:round;stroke-miterlimit:10;stroke-dasharray:none;stroke-opacity:1"
             id="path5370" /></g><g
           id="g5372"
           transform="translate(297.3335,66.5)"><path
             d="m 0,0 h -82.667 c -5.891,0 -10.666,4.775 -10.666,10.667 V 25 h 104 V 10.667 C 10.667,4.775 5.891,0 0,0 Z"
             style="fill:none;stroke:#000000;stroke-width:15;stroke-linecap:round;stroke-linejoin:round;stroke-miterlimit:10;stroke-dasharray:none;stroke-opacity:1"
             id="path5374" /></g><g
           id="g5376"
           transform="translate(173.5,385.3223)"><path
             d="M 0,0 V 55.178 H 60 V 32.372"
             style="fill:none;stroke:#000000;stroke-width:15;stroke-linecap:round;stroke-linejoin:round;stroke-miterlimit:10;stroke-dasharray:none;stroke-opacity:1"
             id="path5378" /></g><g
           id="g5380"
           transform="translate(346,342.7998)"><path
             d="M 0,0 V -113.8 H -180 V 0"
             style="fill:none;stroke:#000000;stroke-width:15;stroke-linecap:round;stroke-linejoin:round;stroke-miterlimit:10;stroke-dasharray:none;stroke-opacity:1"
             id="path5382" /></g><g
           id="g5384"
           transform="translate(299.1152,229)"><path
             d="m 0,0 h -86 v 96 c 0,2.209 1.791,4 4,4 h 78 c 2.209,0 4,-1.791 4,-4 z"
             style="fill:none;stroke:#000000;stroke-width:15;stroke-linecap:round;stroke-linejoin:round;stroke-miterlimit:10;stroke-dasharray:none;stroke-opacity:1"
             id="path5386" /></g><g
           id="g5388"
           transform="translate(368.4395,364.5254)"><path
             d="m 0,0 -104.998,59.998 c -4.611,2.636 -10.272,2.636 -14.883,0 L -224.879,0 c -7.193,-4.109 -9.692,-13.272 -5.581,-20.464 4.11,-7.194 13.273,-9.693 20.464,-5.582 l 97.557,55.745 97.556,-55.745 c 2.347,-1.342 4.904,-1.979 7.428,-1.978 5.206,0 10.268,2.714 13.037,7.56 C 9.692,-13.272 7.193,-4.109 0,0 Z"
             style="fill:none;stroke:#000000;stroke-width:15;stroke-linecap:round;stroke-linejoin:round;stroke-miterlimit:10;stroke-dasharray:none;stroke-opacity:1"
             id="path5390" /></g><g
           id="g5392"
           transform="translate(239.5,440.5)"><path
             d="m 0,0 h -72 c -2.209,0 -4,1.791 -4,4 v 22 c 0,2.209 1.791,4 4,4 H 0 c 2.209,0 4,-1.791 4,-4 V 4 C 4,1.791 2.209,0 0,0 Z"
             style="fill:none;stroke:#000000;stroke-width:15;stroke-linecap:round;stroke-linejoin:round;stroke-miterlimit:10;stroke-dasharray:none;stroke-opacity:1"
             id="path5394" /></g><g
           id="g5396"
           transform="translate(126.5,229)"><path
             d="M 0,0 H 259"
             style="fill:none;stroke:#000000;stroke-width:15;stroke-linecap:round;stroke-linejoin:round;stroke-miterlimit:10;stroke-dasharray:none;stroke-opacity:1"
             id="path5398" /></g><g
           id="g5400"
           transform="translate(403.5,136.5)"><path
             d="m 0,0 h -131 c -15.464,0 -28,12.536 -28,28 0,15.464 12.536,28 28,28 H 0 C 15.464,56 28,43.464 28,28 28,12.536 15.464,0 0,0 Z"
             style="fill:none;stroke:#000000;stroke-width:15;stroke-linecap:round;stroke-linejoin:round;stroke-miterlimit:10;stroke-dasharray:none;stroke-opacity:1"
             id="path5402" /></g></g></g></g></svg>
