<svg xmlns="http://www.w3.org/2000/svg" version="1.1" xmlns:xlink="http://www.w3.org/1999/xlink" width="512" height="512" x="0" y="0" viewBox="0 0 512 512" style="enable-background:new 0 0 512 512" xml:space="preserve" fill-rule="evenodd" class=""><g><path fill="#f8c97f" d="M346.313 446.812H275.99c-3.301 0-6.002-2.7-6.002-6.002V270.354c0-3.3 2.7-6.003 6.002-6.003l70.323.001c3.3 0 6.002 2.702 6.002 6.003V440.91c0 3.2-2.702 5.9-6.002 5.9z" opacity="1" data-original="#f8c97f" class=""></path><path fill="#ffc10a" d="M235.977 446.812h-70.323c-3.301 0-6.002-2.7-6.002-6.002V305.866c0-3.302 2.7-6.003 6.002-6.003h70.323c3.301 0 6.002 2.7 6.002 6.003V440.81c0 3.3-2.7 6-6.002 6z" opacity="1" data-original="#ff9d21" class=""></path><path fill="#e53950" d="M125.64 446.812H55.317c-3.3 0-6.002-2.7-6.002-6.002v-82.627c0-3.301 2.7-6.002 6.002-6.002h70.323c3.301 0 6.002 2.7 6.002 6.003v82.627c0 3.301-2.7 6.001-6.002 6.001z" opacity="1" data-original="#e53950" class=""></path><path fill="#fe5b24" d="M456.649 446.812h-70.323c-3.3 0-6.002-2.7-6.002-6.002V238.544c0-3.302 2.702-6.003 6.003-6.003l70.322.001c3.301 0 6.002 2.7 6.002 6.003V440.81c0 3.301-2.7 6.001-6.002 6.001z" opacity="1" data-original="#2ab793" class=""></path><path fill="#e6e6e6" d="M505.966 446.812H6.001c-7.896 0-7.897-12.005 0-12.005l500.064.001c7.872 0 7.984 12.004-.1 12.004zM106.634 282.26c-6.433 0-8.308-8.941-2.401-11.504l75.526-32.81c7.222-3.135 11.984 7.885 4.8 11.003-8.676 3.766-74.793 33.311-77.925 33.311zm113.137-48.116c-6.619 0-8.285-9.209-2.302-11.604l72.224-28.91c7.426-2.925 11.694 8.226 4.502 11.103-7.889 3.157-72.058 29.411-74.424 29.411zm107.136-48.216c-5.836 0-8.427-7.572-3.402-10.904l75.625-51.717c6.484-4.497 13.299 5.53 6.703 9.903l-75.625 51.717c-.901.7-2.101 1-3.301 1z" opacity="1" data-original="#e6e6e6" class=""></path><path fill="#4a4a56" d="M421.439 147.114c-14.505 0-26.31-11.803-26.31-26.31 0-14.503 11.804-26.308 26.31-26.308 14.504 0 26.31 11.804 26.31 26.309-.002 14.506-11.806 26.309-26.31 26.309zM90.529 314.969c-14.504 0-26.31-11.803-26.31-26.31 0-14.503 11.805-26.308 26.31-26.308 14.504 0 26.31 11.804 26.31 26.309-.101 14.506-11.805 26.309-26.31 26.309zm110.337-53.217c-14.504 0-26.31-11.803-26.31-26.31 0-14.503 11.805-26.308 26.31-26.308 14.504 0 26.31 11.804 26.31 26.309-.101 14.505-11.805 26.309-26.31 26.309zm110.338-42.715c-14.505 0-26.31-11.804-26.31-26.309 0-14.504 11.804-26.309 26.31-26.309 14.504 0 26.31 11.804 26.31 26.31-.102 14.504-11.906 26.308-26.31 26.308z" opacity="1" data-original="#4a4a56" class=""></path><path fill="#fe5b24" d="M180.158 186.827c-37.512 0-68.123-30.51-68.123-68.123 0-37.612 30.51-68.122 68.123-68.122 37.513 0 68.123 30.51 68.123 68.122 0 37.613-30.61 68.123-68.123 68.123z" opacity="1" data-original="#2ab793" class=""></path><path fill="#ffffff" d="M168.655 144.613c-1.501 0-3.102-.6-4.201-1.8l-16.607-16.606c-5.513-5.514 2.796-14.09 8.503-8.503l12.404 12.404 35.412-35.412c5.472-5.472 14.154 2.73 8.504 8.503l-39.713 39.713c-1.2 1.101-2.802 1.701-4.302 1.701z" opacity="1" data-original="#ffffff" class=""></path><g fill="#e6e6e6"><path d="M6.001 461.418c-3.301 0-6.002-2.7-6.002-6.002v-29.21c0-7.896 12.005-7.897 12.005 0v29.21c-.002 3.3-2.702 6.002-6.003 6.002zM505.966 461.418c-3.301 0-6.002-2.7-6.002-6.002v-29.21c0-7.896 12.004-7.897 12.004 0v29.21c0 3.3-2.6 6.002-6.002 6.002z" fill="#e6e6e6" opacity="1" data-original="#e6e6e6" class=""></path></g></g></svg>