<svg id="svg8" height="512" viewBox="0 0 16.933333 16.933334" width="512" xmlns="http://www.w3.org/2000/svg" xmlns:svg="http://www.w3.org/2000/svg"><g id="layer1"><path id="path4609" d="m14.816212.00000027c-.73549.000282-1.32184.59509801-1.32184 1.32244003 0 .245412.0668.475084.18345.6728481-.59158.376975-.97872 1.0381339-.97872 1.792193v.3100681c0 .6669029.53603 1.1937619 1.19162 1.1937619h1.85099c.65558 0 1.19162-.526859 1.19162-1.1937619v-.3100681c0-.7540591-.38714-1.415218-.97872-1.792193.11664-.1977641.18345-.4274361.18345-.6728481 0-.72734202-.58635-1.32215803-1.32185-1.32244003zm-12.6990902.52918302c-1.16798007 0-2.11712011.93798701-2.11712011 2.11724811v11.6415046c0 1.180536.94914004 2.117248 2.11712011 2.117248h4.76184c1.1791101 0 2.11763-.949114 2.11763-2.117248v-1.588582h.7926901c.1461695.000556.2651001-.117383.2656101-.263558v-1.588065c-.000503-.146176-.1194406-.26412-.2656101-.263558h-3.5056202c-1.1771699 0-2.1150498-.9482704-2.1150498-2.1172475 0-1.168977.9378799-2.1172482 2.1150498-2.1172482h3.5056202c.1461695.0005556.2651001-.1173829.2656101-.2635578v-1.5880652c.000582-.146939-.1186806-.2661899-.2656101-.265625h-.7926901v-1.5859979c0-1.1744241-.9496499-2.11724811-2.11763-2.11724811zm12.6990902 0c.43094.00028311.79476.35191199.79476.79325701 0 .441346-.35934.7945241-.79476.7948081-.43541-.0002831-.79475-.3534621-.79475-.7948081 0-.44134502.36382-.79297303.79475-.79325701zm-12.6990902.52918301h4.76184c.8839901 0 1.5879702.713412 1.5879702 1.5880651v1.5859979h-.5291601v-1.5859979c0-.5905451-.4771101-1.0588831-1.0588101-1.0588831h-4.76184c-.5941101 0-1.0577901.4771071-1.0577901 1.0588831v11.6415046c0 .581775.46718 1.058882 1.0577901 1.058882h4.76184c.5883802 0 1.0588101-.477107 1.0588101-1.058882v-1.588582h.5291601v1.588582c0 .884111-.71066 1.587548-1.5879702 1.587548h-4.76184c-.8777901 0-1.5874501-.703437-1.5874501-1.587548v-11.6415046c0-.8774201.70346-1.5880651 1.5874501-1.5880651zm0 1.0588821h4.76184c.29772 0 .5296601.2387329.5296601.529183v1.5859979h-1.19937c-2.2630202 0-4.0916102 1.8225051-4.0916102 4.0939321v.281128c0 2.2693596 1.82859 4.0918646 4.0916102 4.0918646h1.19937v1.588582c0 .289489-.2319401.529699-.5296601.529699h-4.76184c-.2977201 0-.5291501-.23751-.5291501-.529699v-11.6415046c0-.2977581.2397-.529183.5291501-.529183zm11.9234602.2775109c.21669.156787.48564.251558.77563.2516721.28999-.0001141.55895-.09488.77564-.2516721.48041.2682299.81182.7903992.81182 1.3927221v.3100681c0 .363369-.29154.6640629-.66196.6640629-.665835 0-1.188602 0-1.85099 0-.37043 0-.66196-.3006939-.66196-.6640629v-.3100681c0-.6023229.33141-1.1244922.81182-1.3927221zm-3.19248 1.574112c-.35307-.000217-.35307.5289661 0 .529183h.52915c.35307.000217.35307-.5289658 0-.529183zm-4.6388501.7927411h2.2576801v1.0588821h-2.1832703c-1.4611699 0-2.64472 1.172768-2.64472 2.646431 0 1.4736622 1.1835501 2.6469465 2.64472 2.6469465h2.1832703v1.056299h-2.2576801c-1.9790201 0-3.5624601-1.595941-3.5624601-3.5626816v-.281128c0-1.9667418 1.58344-3.5647501 3.5624601-3.564749zm2.7873399 0h.52915v1.0588821h-.52915zm2.6452402.265625c-.35307-.000217-.35307.5289651 0 .529182h.52915c.35307.000217.35307-.528965 0-.529182zm3.17438.7937741c-.73549.000291-1.32184.5950979-1.32184 1.3224399 0 .2454121.0668.4750832.18345.6728481-.59158.3769749-.97872 1.038134-.97872 1.7921931v.3100681c0 .6669033.53603 1.1937613 1.19162 1.1937613h1.85099c.65559 0 1.19162-.526858 1.19162-1.1937613v-.3100681c0-.7540591-.38714-1.4152182-.97872-1.7921931.11664-.1977649.18345-.427436.18345-.6728481 0-.727342-.58635-1.3221579-1.32185-1.3224399zm-3.96811.264591c-.35307-.000217-.35307.5289659 0 .5291828h.52915c.35307.0002172.35307-.5289658 0-.5291828zm3.96811.2645918c.43094.000291.79476.3519122.79476.7932571 0 .4413462-.35934.7945242-.79476.7948081-.43541-.0002911-.79475-.3534619-.79475-.7948081 0-.4413449.36382-.7929729.79475-.7932571zm-7.6711302.5286661c-.0887276-.0004549-.1717771.0435947-.2211699.1173091l-.52915.795324c-.069923.1049506-.05607.2446653.0331.3338399l.4066802.4061891-.4650801 1.160172c-.09486.2439084.1840858.4628045.3984199.3126515l1.85357-1.3224404c.1330897-.095111.1488669-.2869965.0331-.4025712l-.3415701-.3415919.6051201-.6072169c.166758-.1668846.0482833-.4520781-.1876301-.4516652zm.1405599.529699h.8066403l-.3420901.3415922c-.1039721.1034481-.1039721.2717337 0 .3751818l.3084999.3085182-.86297.6170348.1932701-.4862899c.039299-.098213.016332-.2103964-.0584-.2852621l-.37516-.3746659zm6.7549403.8072109c.21669.1567871.48565.2515582.77563.2516722.28999-.000114.55895-.09488.77564-.2516722.48041.2682301.81182.7903983.81182 1.3927223v.3100681c0 .3633683-.29153.6640623-.66196.6640623-.616997 0-1.233993 0-1.85099 0-.37043 0-.66196-.300694-.66196-.6640623v-.3100681c0-.602324.33141-1.1244922.81182-1.3927223zm-3.19248 2.1032947c-.35307-.000217-.35307.528966 0 .529182h.52915c.35307.000217.35307-.528965 0-.529182zm-1.8515102.794807h.52915v1.056299h-.52915zm2.6452402.263558c-.35307-.000217-.35307.528966 0 .529183h.52915c.35307.000217.35307-.528966 0-.529183zm3.17438.264592c-.73549.000291-1.32184.595098-1.32184 1.32244 0 .245411.0668.475084.18345.672848-.59158.376975-.97872 1.038134-.97872 1.792193v.310068c0 .666903.53603 1.193762 1.19162 1.193762h1.85099c.65559 0 1.19162-.526859 1.19162-1.193762v-.310068c0-.754059-.38714-1.415218-.97872-1.792193.11664-.197764.18345-.427437.18345-.672848 0-.727342-.58635-1.322158-1.32185-1.32244zm0 .529183c.43094.000291.79476.351912.79476.793257 0 .441346-.35934.794524-.79476.794808-.43541-.000291-.79475-.353462-.79475-.794808 0-.441345.36382-.792974.79475-.793257zm-3.96811.264591c-.35307-.000217-.35307.528966 0 .529183h.52915c.35307.000217.35307-.528966 0-.529183zm-8.4664102 1.058366c-.3528401 0-.3528401.529182 0 .529182h.5286401c.3528398 0 .3528398-.529182 0-.529182zm1.58746 0c-.3528499 0-.3528499.529182 0 .529182h1.0583c.3528401 0 .3528401-.529182 0-.529182zm2.1166 0c-.3528499 0-.3528499.529182 0 .529182h.52915c.3528401 0 .3528401-.529182 0-.529182zm7.9548302.542619c.21669.156786.48565.251557.77563.251671.28999-.000114.55895-.09488.77564-.251671.48041.26823.81182.790399.81182 1.392722v.310068c0 .363368-.29153.664062-.66196.664062-.616997 0-1.233993 0-1.85099 0-.37043 0-.66196-.300694-.66196-.664062v-.310068c0-.602323.33141-1.124492.81182-1.392722z" font-variant-ligatures="normal" font-variant-position="normal" font-variant-caps="normal" font-variant-numeric="normal" font-variant-alternates="normal" font-feature-settings="normal" text-indent="0" text-align="start" text-decoration-line="none" text-decoration-style="solid" text-decoration-color="rgb(0,0,0)" text-transform="none" text-orientation="mixed" white-space="normal" shape-padding="0" isolation="auto" mix-blend-mode="normal" solid-color="rgb(0,0,0)" solid-opacity="1" vector-effect="none"/></g></svg>