<svg id="a" height="512" viewBox="0 0 64 64" width="512" xmlns="http://www.w3.org/2000/svg"><path d="m56 8.5h-48c-3.30859 0-6 2.69141-6 6v28c0 1.87109.86279 3.61426 2.36719 4.78027.43555.33789 1.06494.26074 1.40283-.17773.33887-.43555.25928-1.06445-.17725-1.40234-1.01221-.78516-1.59277-1.95117-1.59277-3.2002v-24h56v24c0 1.24902-.58057 2.41504-1.59277 3.2002-1.02545.81744.17566 2.37152 1.22565 1.58002 1.50433-1.16595 2.36713-2.90912 2.36713-4.78021v-28.00001c0-3.30859-2.69141-6-6-6zm4 8h-56v-2c0-2.20557 1.79443-4 4-4h48c2.20557 0 4 1.79443 4 4z"/><path d="m9 12.5h-2c-1.31403.02222-1.31451 1.97778.00006 2-.00006 0 1.99994 0 1.99994 0 1.31384-.02222 1.3147-1.97778 0-2z"/><path d="m14 12.5h-2c-1.31403.02222-1.31451 1.97778.00006 2-.00006 0 1.99994 0 1.99994 0 1.31384-.02222 1.3147-1.97778 0-2z"/><path d="m19 12.5h-2c-1.31403.02222-1.31451 1.97778.00006 2-.00006 0 1.99994 0 1.99994 0 1.31384-.02222 1.3147-1.97778 0-2z"/><path d="m26.65918 24.91064c-.77307-1.05286-2.38269.11328-1.6181 1.17584-.00006-.00006 1.76312 2.42719 1.76312 2.42719.77625 1.05481 2.38153-.11597 1.61816-1.17584 0 .00006-1.76318-2.42719-1.76318-2.42719z"/><path d="m33 26.5v-3c-.02209-1.31354-1.97772-1.31494-2 0v3c.02185 1.3136 1.97803 1.31506 2 0z"/><path d="m37.34082 24.91071c0-.00006-1.76318 2.42719-1.76318 2.42719-.76245 1.05865.84039 2.23199 1.61816 1.17578l1.76318-2.42822c.76294-1.06-.84296-2.22992-1.61816-1.17474z"/><path d="m25 36.5c0 3.85938 3.14014 7 7 7 9.27362-.35211 9.27112-13.64929-.00006-14-3.8598 0-6.99994 3.14062-6.99994 7zm7-5c2.75684 0 5 2.24316 5 5-.23499 6.61749-9.76599 6.61578-10-.00012 0-2.75671 2.24316-4.99988 5-4.99988z"/><path d="m35.27734 43.05957c-.56268-.21063-1.22681.1828-1.31396.77637-.16406.96484-.98975 1.66406-1.96338 1.66406s-1.79932-.69922-1.96338-1.66406c-.08667-.59363-.7514-.98584-1.31396-.77637-4.021 1.39551-6.72266 5.18945-6.72266 9.44043 0 1.6543 1.3457 3 3 3h14c1.6543 0 3-1.3457 3-3 0-4.25098-2.70166-8.04492-6.72266-9.44043zm3.72266 10.44043h-14c-.55127 0-1-.44824-1-1 0-3.0625 1.75342-5.82812 4.45166-7.16309 1.34723 2.84387 5.75 2.84302 7.09668 0 2.69824 1.33496 4.45166 4.10059 4.45166 7.16309 0 .55176-.44873 1-1 1z"/><path d="m42.41992 42.5c-1.07129 0-2.06201-.35742-2.86572-1.03418-.42236-.35547-1.05322-.30176-1.40869.12012-.35596.42285-.30176 1.05371.12061 1.40918 1.65326 1.4212 4.11841 1.8844 6.18213 1.17639-.15588.14825-.27856.32812-.31445.54431-.12695.75977-.75098 1.35254-1.51807 1.44141-.54883.0625-.94238.55859-.87939 1.10742.53577 2.03186 3.46246.12769 3.96582-1.05176 2.42474 1.21765 3.98615 3.75793 3.96777 6.45703 0 .45801-.37256.83008-.83008.83008h-5.25c-1.31061.01984-1.31714 1.97845.00006 2-.00006 0 12.9101 0 12.9101 0 1.47217 0 2.66992-1.19727 2.66992-2.66992 0-3.61035-2.29425-6.83398-5.70874-8.02325 6.96448-3.96722 1.45856-14.23395-5.72113-10.5296-1.60535-2.41718-5.1297-3.51501-7.87238-2.24298-.50537.2226-.73535.81244-.51318 1.3183.65234 1.28906 2.02478-.02209 3.06543.14752 5.94629.18762 5.94598 8.81244 0 8.99994zm6.77588 3.08301c-.01843-.10907-.0705-.20465-.1217-.29962 1.0188.28967 2.18109.28546 3.19373-.00604-.05292.09656-.1051.1947-.12378.30566-.25452 1.63666-2.69354 1.63623-2.94824 0zm4.50195 1.50098c2.11035 1.11133 3.47217 3.31445 3.47217 5.74609 0 .36914-.30029.66992-.66992.66992h-4.96869c.38556-1.56226-.1073-3.27026-.70923-4.68011 1.21979-.05267 2.29169-.72168 2.87567-1.7359zm-4.77783-9.08398c0-.67316-.10303-1.32275-.29388-1.9339 2.54688-1.61255 6.12384.4054 6.04382 3.43396.03723 3.7395-4.84442 5.43427-7.12506 2.48364.85834-1.10175 1.37512-2.48218 1.37512-3.9837zm-1.02374 6.80493c-.15454.05029-.28113.11176-.41083.16412-.73022-.43262-1.49316-.97278-2.35065-1.07098.33521-.15491.65698-.33344.95856-.54089.50592.59961 1.11731 1.08875 1.80292 1.44775z"/><path d="m4.83008 52.83008c0 1.47266 1.19775 2.66992 2.66992 2.66992h12.91016c1.31207-.02197 1.31647-1.97742 0-2h-5.25c-.45752 0-.83008-.37207-.83008-.83008-.01831-2.70227 1.54456-5.24139 3.96777-6.45703.50201 1.17841 3.42963 3.08386 3.96588 1.05182.06293-.54889-.33063-1.04498-.87946-1.10748-.76709-.08887-1.39111-.68164-1.51807-1.44141-.03589-.21619-.15863-.39606-.31445-.54431 2.06403.70746 4.52869.24518 6.18213-1.17645.42236-.35541.47656-.98627.12061-1.40912-.35645-.42285-.98682-.47656-1.40869-.12012-2.80219 2.44452-7.44617.26105-7.36566-3.46594-.00006-2.48132 2.01849-4.49988 4.49994-4.49988 1.03912-.17175 2.41589 1.14325 3.06543-.14746.53473-1.62775-1.97919-1.78882-3.06537-1.8526-2.19928.00006-4.14343 1.10077-5.32019 2.77728-7.18604-3.70502-12.6817 6.56805-5.72113 10.5296-3.41449 1.18927-5.70874 4.4129-5.70874 8.02325zm9.97412-7.24707c-.25531 1.63678-2.6936 1.63617-2.94824-.00006-.01868-.1109-.07086-.20905-.12378-.3056 1.0127.2915 2.17493.29572 3.19373.00604-.05121.09497-.10327.19055-.1217.29962zm3.10254-2.22583c.30194.20776.62421.38641.9599.5415-.85809.09613-1.6192.63708-2.35211 1.07037-.1297-.05237-.25616-.11383-.38904-.16144.66394-.36169 1.27533-.85083 1.78125-1.45044zm-8.57666-3.85718c-.07996-3.02826 3.49738-5.047 6.04388-3.4339-.65094 1.97003-.18542 4.35657 1.08124 5.9176-2.28149 2.95099-7.16241 1.25537-7.12512-2.4837zm.97217 7.58398c.58392 1.0141 1.6557 1.68304 2.87531 1.7359-.60138 1.40894-1.09448 3.11841-.70886 4.68011h-4.9687c-.36963 0-.66992-.30078-.66992-.66992 0-2.43164 1.36182-4.63477 3.47217-5.74609z"/></svg>