<svg height="512" viewBox="0 0 64 64" width="512" xmlns="http://www.w3.org/2000/svg"><g id="app"><path d="m58 1h-52c-2.7568359 0-5 2.2431641-5 5v38c0 2.7568359 2.2431641 5 5 5h19.7802734l-1.6000977 8h-4.1801757c-1.6542969 0-3 1.3457031-3 3v2c0 .5522461.4477539 1 1 1h28c.5527344 0 1-.4477539 1-1v-2c0-1.6542969-1.3457031-3-3-3h-4.1796875l-.7988281-4h12.9785156c2.2060547 0 4-1.7944336 4-4h2c2.7568359 0 5-2.2431641 5-5v-38c0-2.7568359-2.2431641-5-5-5zm-52 2h52c1.6542969 0 3 1.3457031 3 3v33h-5v-20c0-2.2055664-1.7939453-4-4-4h-14c-2.2060547 0-4 1.7944336-4 4v20h-31v-33c0-1.6542969 1.3457031-3 3-3zm41.6132813 14-.3339844 1h-4.5585938l-.3339844-1zm-44.6132813 27v-3h31v6h-28c-1.6542969 0-3-1.3457031-3-3zm42 16v1h-26v-1c0-.5512695.4487305-1 1-1h24c.5517578 0 1 .4487305 1 1zm-18.7802734-3 1.6000977-8h6.1801757c0 1.8398438 1.2558594 3.3779297 2.9501953 3.8427734l.8300781 4.1572266zm27.7802734-8c0 1.1030273-.8974609 2-2 2h-14c-1.1025391 0-2-.8969727-2-2v-30c0-1.1030273.8974609-2 2-2h2.2792969l.7724609 2.3164063c.1357422.4082031.5175781.6835937.9482422.6835937h6c.4306641 0 .8125-.2753906.9482422-.6835938l.7724609-2.3164062h2.2792969c1.1025391 0 2 .8969727 2 2zm4-2h-2v-6h5v3c0 1.6542969-1.3457031 3-3 3zm-47-36c0-.5522461.4477539-1 1-1h6c.5522461 0 1 .4477539 1 1s-.4477539 1-1 1h-6c-.5522461 0-1-.4477539-1-1zm0 5c0-.5522461.4477539-1 1-1h19c.5522461 0 1 .4477539 1 1s-.4477539 1-1 1h-19c-.5522461 0-1-.4477539-1-1zm0 4c0-.5522461.4477539-1 1-1h19c.5522461 0 1 .4477539 1 1s-.4477539 1-1 1h-19c-.5522461 0-1-.4477539-1-1zm0 4c0-.5522461.4477539-1 1-1h19c.5522461 0 1 .4477539 1 1s-.4477539 1-1 1h-19c-.5522461 0-1-.4477539-1-1zm0 4c0-.5522461.4477539-1 1-1h19c.5522461 0 1 .4477539 1 1s-.4477539 1-1 1h-19c-.5522461 0-1-.4477539-1-1zm0 4c0-.5522461.4477539-1 1-1h19c.5522461 0 1 .4477539 1 1s-.4477539 1-1 1h-19c-.5522461 0-1-.4477539-1-1zm36 17c0 .5522461-.4472656 1-1 1h-2c-.5527344 0-1-.4477539-1-1s.4472656-1 1-1h2c.5527344 0 1 .4477539 1 1zm1.7070313-17.7070312c.390625.390625.390625 1.0234375 0 1.4140625l-4 4c-.1953125.1953125-.4511719.2929687-.7070313.2929687s-.5117188-.0976563-.7070313-.2929688l-2-2c-.390625-.390625-.390625-1.0234375 0-1.4140625s1.0234375-.390625 1.4140625 0l1.2929688 1.2929688 3.2929688-3.2929688c.390625-.3906249 1.0234375-.3906249 1.4140625.0000001zm-3.7070313-4.2929688c-3.859375 0-7 3.1401367-7 7s3.140625 7 7 7 7-3.1401367 7-7-3.140625-7-7-7zm0 12c-2.7568359 0-5-2.2431641-5-5s2.2431641-5 5-5 5 2.2431641 5 5-2.2431641 5-5 5z"/></g></svg>