<svg xmlns="http://www.w3.org/2000/svg" version="1.1" xmlns:xlink="http://www.w3.org/1999/xlink" width="512" height="512" x="0" y="0" viewBox="0 0 256 256" style="enable-background:new 0 0 512 512" xml:space="preserve" class=""><g><path fill="#edf4fc" d="M108.695 233.427v-1.756H74.717a5.541 5.541 0 0 0 0 11.082h43.303c-5.128-.001-9.325-4.197-9.325-9.326z" opacity="1" data-original="#edf4fc" class=""></path><path fill="#c7d7e5" d="M92.883 206.277h15.812v25.394H92.883z" opacity="1" data-original="#c7d7e5"></path><path fill="#ffffff" d="M182.796 232.026v-95.445c0-5.9 4.827-10.726 10.726-10.726h34.543V90.062c0-5.129-4.197-9.325-9.325-9.325H118.021c-5.129 0-9.325 4.196-9.325 9.325v143.365c0 5.129 4.196 9.325 9.325 9.325h75.501c-5.899 0-10.726-4.826-10.726-10.726z" opacity="1" data-original="#5290db" class=""></path><path fill="#ffffff" d="M108.695 90.062c0-5.129 4.196-9.325 9.325-9.325h100.719c5.128 0 9.325 4.196 9.325 9.324V46.573c0-6.506-5.324-11.83-11.83-11.83H14.33c-6.506 0-11.83 5.323-11.83 11.83v147.874c0 6.507 5.323 11.83 11.83 11.83h94.365z" opacity="1" data-original="#5290db" class=""></path><path fill="#ffffff" d="M242.774 125.855h-49.252c-5.899 0-10.726 4.826-10.726 10.726v95.445c0 5.899 4.827 10.726 10.726 10.726h49.252c5.899 0 10.726-4.827 10.726-10.726v-95.445c0-5.899-4.827-10.726-10.726-10.726z" opacity="1" data-original="#5290db" class=""></path><path fill="#edf4fc" d="M240.927 135.282h-11.035c-1.523 0-2.918.907-3.48 2.323a8.894 8.894 0 0 1-16.53 0c-.563-1.416-1.957-2.323-3.48-2.323h-11.035a3.145 3.145 0 0 0-3.145 3.145v91.752a3.145 3.145 0 0 0 3.145 3.145h45.559a3.145 3.145 0 0 0 3.145-3.145v-91.752a3.142 3.142 0 0 0-3.144-3.145z" opacity="1" data-original="#edf4fc" class=""></path><path fill="#edf4fc" d="M182.796 232.026v-95.445c0-5.9 4.827-10.726 10.726-10.726h24.364V91.836a.92.92 0 0 0-.921-.92h-97.17a.921.921 0 0 0-.921.92v139.817c0 .508.412.92.921.92h63.029c-.009-.182-.028-.362-.028-.547zM108.695 174.73H2.5v19.717c0 6.507 5.323 11.83 11.83 11.83h94.365z" opacity="1" data-original="#edf4fc" class=""></path><path fill="#edf4fc" d="M108.695 90.062c0-5.129 4.196-9.325 9.325-9.325h100.186V46.573a1.977 1.977 0 0 0-1.972-1.971H14.33a1.978 1.978 0 0 0-1.972 1.971V174.73h96.337z" opacity="1" data-original="#edf4fc" class=""></path><path fill="#ffffff" d="M216.235 44.601H14.33a1.978 1.978 0 0 0-1.972 1.972V56.5h205.849v-9.927a1.979 1.979 0 0 0-1.972-1.972z" opacity="1" data-original="#5290db" class=""></path><path fill="#fe5b24" d="M28.5 44.601H14.33a1.978 1.978 0 0 0-1.972 1.972V56.5H28.5z" opacity="1" data-original="#fc657e" class=""></path><path fill="#afefda" d="M59.736 163.5H28.264a3.764 3.764 0 0 1-3.764-3.764v-40.471a3.764 3.764 0 0 1 3.764-3.764h31.471a3.764 3.764 0 0 1 3.764 3.764v40.471a3.762 3.762 0 0 1-3.763 3.764z" opacity="1" data-original="#70d6f9" class=""></path><path fill="#ffc10a" d="M108.695 163.5v-48H78.264a3.764 3.764 0 0 0-3.764 3.764v40.471a3.764 3.764 0 0 0 3.764 3.764h30.431zM232.749 187.67h-29.201a2.9 2.9 0 0 0-2.899 2.899v7.224a2.9 2.9 0 0 0 2.899 2.899h29.201a2.9 2.9 0 0 0 2.899-2.899v-7.224a2.9 2.9 0 0 0-2.899-2.899z" opacity="1" data-original="#f5c84c" class=""></path><path fill="#fe5b24" d="M232.749 210.307h-29.201a2.9 2.9 0 0 0-2.899 2.899v7.224a2.9 2.9 0 0 0 2.899 2.899h29.201a2.9 2.9 0 0 0 2.899-2.899v-7.224a2.9 2.9 0 0 0-2.899-2.899z" opacity="1" data-original="#fc657e" class=""></path><path fill="#afefda" d="M232.749 165.034h-29.201a2.9 2.9 0 0 0-2.899 2.899v7.224a2.9 2.9 0 0 0 2.899 2.899h29.201a2.9 2.9 0 0 0 2.899-2.899v-7.224a2.9 2.9 0 0 0-2.899-2.899zM134.368 129.305a3.823 3.823 0 0 0-3.823 3.823v14.835a3.823 3.823 0 0 0 3.823 3.823h48.428v-15.204c0-2.805 1.1-5.36 2.879-7.276h-51.307z" opacity="1" data-original="#70d6f9" class=""></path><path fill="#ffc10a" d="M134.368 163.805a3.823 3.823 0 0 0-3.823 3.823v14.835a3.823 3.823 0 0 0 3.823 3.823h48.428v-22.48h-48.428z" opacity="1" data-original="#f5c84c" class=""></path><path fill="#fe5b24" d="M134.368 198.305a3.823 3.823 0 0 0-3.823 3.823v14.835a3.823 3.823 0 0 0 3.823 3.823h48.428v-22.48h-48.428z" opacity="1" data-original="#fc657e" class=""></path><path fill="#ffc10a" d="M255.863 78.438c-3.641-.678-6.511-3.489-7.203-7.056a.162.162 0 0 0-.32 0c-.692 3.567-3.562 6.378-7.203 7.056a.158.158 0 0 0 0 .313c3.641.678 6.511 3.489 7.203 7.056a.162.162 0 0 0 .32 0c.692-3.567 3.562-6.378 7.203-7.056a.158.158 0 0 0 0-.313z" opacity="1" data-original="#f5c84c" class=""></path><path fill="#fe5b24" d="M140.131 17.224c-3.279-.611-5.864-3.143-6.488-6.355-.031-.161-.257-.161-.288 0-.623 3.213-3.208 5.745-6.488 6.355a.142.142 0 0 0 0 .282c3.279.611 5.864 3.143 6.488 6.356.031.161.257.161.288 0 .623-3.213 3.208-5.745 6.488-6.356a.142.142 0 0 0 0-.282z" opacity="1" data-original="#fc657e" class=""></path><path fill="#afefda" d="M45.442 223.235h2.33v-2.33a3.156 3.156 0 1 1 6.314 0v2.33h2.329a3.156 3.156 0 1 1 0 6.314h-2.329v2.33a3.156 3.156 0 1 1-6.314 0v-2.33h-2.33a3.156 3.156 0 1 1 0-6.314z" opacity="1" data-original="#70d6f9" class=""></path><circle cx="241.721" cy="97.37" r="3.377" fill="#87d147" opacity="1" data-original="#87d147"></circle><circle cx="108.721" cy="21.37" r="3.377" fill="#afefda" opacity="1" data-original="#70d6f9" class=""></circle><circle cx="24.721" cy="219.37" r="3.377" fill="#ffc10a" opacity="1" data-original="#f5c84c" class=""></circle><path d="M118.021 245.252H74.718c-4.434 0-8.041-3.607-8.041-8.041s3.607-8.04 8.041-8.04h33.313a2.5 2.5 0 1 1 0 5H74.718c-1.677 0-3.041 1.363-3.041 3.04s1.364 3.041 3.041 3.041h43.303a2.5 2.5 0 1 1 0 5z" fill="#1f1f1f" opacity="1" data-original="#000000" class=""></path><path d="M92.883 233.406a2.5 2.5 0 0 1-2.5-2.5v-23.864a2.5 2.5 0 1 1 5 0v23.864a2.5 2.5 0 0 1-2.5 2.5zM193.521 245.252H118.02c-6.521 0-11.825-5.305-11.825-11.825V90.062c0-6.521 5.305-11.825 11.825-11.825h100.719c6.521 0 11.825 5.305 11.825 11.825v35.146a2.5 2.5 0 1 1-5 0V90.062a6.832 6.832 0 0 0-6.825-6.825H118.021a6.832 6.832 0 0 0-6.825 6.825v143.365a6.832 6.832 0 0 0 6.825 6.825h75.501a2.5 2.5 0 1 1-.001 5z" fill="#1f1f1f" opacity="1" data-original="#000000" class=""></path><path d="M108.125 208.777H14.33c-7.901 0-14.33-6.429-14.33-14.33V46.572c0-7.901 6.429-14.329 14.33-14.329h201.905c7.901 0 14.329 6.428 14.329 14.329V90.06a2.5 2.5 0 1 1-5 0V46.572c0-5.145-4.185-9.329-9.329-9.329H14.33c-5.145 0-9.33 4.185-9.33 9.329v147.875c0 5.145 4.186 9.33 9.33 9.33h93.795a2.5 2.5 0 1 1 0 5z" fill="#1f1f1f" opacity="1" data-original="#000000" class=""></path><path d="M242.774 245.252h-49.253c-7.293 0-13.226-5.933-13.226-13.226v-95.445c0-7.293 5.933-13.226 13.226-13.226h49.253c7.293 0 13.226 5.933 13.226 13.226v95.445c0 7.293-5.933 13.226-13.226 13.226zm-49.253-116.897c-4.535 0-8.226 3.69-8.226 8.226v95.445c0 4.535 3.69 8.226 8.226 8.226h49.253c4.535 0 8.226-3.69 8.226-8.226v-95.445c0-4.535-3.69-8.226-8.226-8.226zM36.5 71h-6a2.5 2.5 0 1 1 0-5h6a2.5 2.5 0 1 1 0 5zM54 71h-6a2.5 2.5 0 1 1 0-5h6a2.5 2.5 0 1 1 0 5zM71.5 71h-6a2.5 2.5 0 1 1 0-5h6a2.5 2.5 0 1 1 0 5zM137.5 105h-6a2.5 2.5 0 1 1 0-5h6a2.5 2.5 0 1 1 0 5zM155 105h-6a2.5 2.5 0 1 1 0-5h6a2.5 2.5 0 1 1 0 5zM172.5 105h-6a2.5 2.5 0 1 1 0-5h6a2.5 2.5 0 1 1 0 5z" fill="#1f1f1f" opacity="1" data-original="#000000" class=""></path><path d="M233.5 154h-6a2.5 2.5 0 1 1 0-5h6a2.5 2.5 0 1 1 0 5z" fill="#1f1f1f" opacity="1" data-original="#000000" class=""></path><path d="M240.928 235.825h-45.56a5.652 5.652 0 0 1-5.645-5.646v-91.752a5.652 5.652 0 0 1 5.645-5.646h11.035c2.584 0 4.862 1.53 5.804 3.898.974 2.45 3.306 4.033 5.941 4.033s4.968-1.583 5.941-4.033c.941-2.368 3.219-3.898 5.803-3.898h11.035a5.652 5.652 0 0 1 5.645 5.646v91.752a5.651 5.651 0 0 1-5.644 5.646zm-45.56-98.043a.647.647 0 0 0-.645.646v91.752c0 .355.289.646.645.646h45.56c.355 0 .645-.29.645-.646v-91.752a.647.647 0 0 0-.645-.646h-11.035c-.515 0-.979.3-1.156.746a11.337 11.337 0 0 1-10.588 7.186c-4.697 0-8.854-2.82-10.588-7.187-.178-.445-.643-.745-1.157-.745z" fill="#1f1f1f" opacity="1" data-original="#000000" class=""></path><path d="M182.438 235.073h-62.643a3.424 3.424 0 0 1-3.421-3.42V91.836a3.424 3.424 0 0 1 3.421-3.421h97.171a3.424 3.424 0 0 1 3.42 3.421v33.539a2.5 2.5 0 1 1-5 0v-31.96h-94.012v136.658h61.063a2.5 2.5 0 0 1 .001 5zM108.313 177.23H3.187a2.5 2.5 0 1 1 0-5h105.126a2.5 2.5 0 1 1 0 5z" fill="#1f1f1f" opacity="1" data-original="#000000" class=""></path><path d="M12.358 176.75a2.5 2.5 0 0 1-2.5-2.5V46.572a4.477 4.477 0 0 1 4.472-4.471h201.905a4.477 4.477 0 0 1 4.472 4.471v33.553a2.5 2.5 0 1 1-5 0V47.102H14.858V174.25a2.5 2.5 0 0 1-2.5 2.5z" fill="#1f1f1f" opacity="1" data-original="#000000" class=""></path><path d="M217.531 59H13.042a2.5 2.5 0 1 1 0-5h204.489a2.5 2.5 0 1 1 0 5z" fill="#1f1f1f" opacity="1" data-original="#000000" class=""></path><path d="M28.5 58.25a2.5 2.5 0 0 1-2.5-2.5V45.156a2.5 2.5 0 1 1 5 0V55.75a2.5 2.5 0 0 1-2.5 2.5zM59.735 166h-31.47A6.273 6.273 0 0 1 22 159.735v-40.471a6.273 6.273 0 0 1 6.265-6.265h31.471a6.273 6.273 0 0 1 6.265 6.265v40.471A6.274 6.274 0 0 1 59.735 166zm-31.47-48c-.697 0-1.265.567-1.265 1.265v40.471c0 .697.567 1.265 1.265 1.265h31.471c.697 0 1.265-.567 1.265-1.265v-40.471c0-.697-.567-1.265-1.265-1.265zM107.917 166H78.265A6.273 6.273 0 0 1 72 159.735v-40.471a6.273 6.273 0 0 1 6.265-6.265h29.767a2.5 2.5 0 1 1 0 5H78.265c-.697 0-1.265.567-1.265 1.265v40.471c0 .697.567 1.265 1.265 1.265h29.652a2.5 2.5 0 1 1 0 5zM232.749 203.193h-29.201a5.404 5.404 0 0 1-5.399-5.399v-7.224c0-2.978 2.422-5.4 5.399-5.4h29.201a5.405 5.405 0 0 1 5.399 5.4v7.224a5.404 5.404 0 0 1-5.399 5.399zm-29.201-13.023a.4.4 0 0 0-.399.4v7.224c0 .221.179.399.399.399h29.201a.399.399 0 0 0 .399-.399v-7.224a.4.4 0 0 0-.399-.4zM232.749 225.83h-29.201a5.405 5.405 0 0 1-5.399-5.4v-7.224a5.404 5.404 0 0 1 5.399-5.399h29.201a5.404 5.404 0 0 1 5.399 5.399v7.224c0 2.977-2.421 5.4-5.399 5.4zm-29.201-13.023a.399.399 0 0 0-.399.399v7.224a.4.4 0 0 0 .399.4h29.201a.4.4 0 0 0 .399-.4v-7.224a.399.399 0 0 0-.399-.399zM232.749 180.557h-29.201a5.404 5.404 0 0 1-5.399-5.399v-7.224a5.404 5.404 0 0 1 5.399-5.399h29.201a5.404 5.404 0 0 1 5.399 5.399v7.224a5.404 5.404 0 0 1-5.399 5.399zm-29.201-13.023a.399.399 0 0 0-.399.399v7.224c0 .221.179.399.399.399h29.201a.399.399 0 0 0 .399-.399v-7.224a.399.399 0 0 0-.399-.399zM182.25 154.285h-47.882a6.33 6.33 0 0 1-6.323-6.322v-14.835a6.33 6.33 0 0 1 6.323-6.323h50.726a2.5 2.5 0 1 1 0 5h-50.726c-.729 0-1.323.594-1.323 1.323v14.835c0 .729.594 1.322 1.323 1.322h47.882a2.5 2.5 0 1 1 0 5zM182.25 188.785h-47.882a6.33 6.33 0 0 1-6.323-6.322v-14.835a6.33 6.33 0 0 1 6.323-6.323h47.976a2.5 2.5 0 1 1 0 5h-47.976c-.729 0-1.323.594-1.323 1.323v14.835c0 .729.594 1.322 1.323 1.322h47.882a2.5 2.5 0 1 1 0 5zM182.094 223.285h-47.726a6.33 6.33 0 0 1-6.323-6.322v-14.835a6.33 6.33 0 0 1 6.323-6.323h47.82a2.5 2.5 0 1 1 0 5h-47.82c-.729 0-1.323.594-1.323 1.323v14.835c0 .729.594 1.322 1.323 1.322h47.726a2.5 2.5 0 1 1 0 5z" fill="#1f1f1f" opacity="1" data-original="#000000" class=""></path></g></svg>