<?xml version="1.0" encoding="UTF-8"?>
<svg xmlns="http://www.w3.org/2000/svg" xmlns:xlink="http://www.w3.org/1999/xlink" version="1.1" id="Capa_1" x="0px" y="0px" viewBox="0 0 511.996 511.996" style="enable-background:new 0 0 511.996 511.996;" xml:space="preserve" width="512" height="512">
<g>
	<path style="fill:none;stroke:#000000;stroke-width:15;stroke-linecap:round;stroke-linejoin:round;stroke-miterlimit:10;" d="&#10;&#9;&#9;M80.81,44.722c11.696,2.611,23.436,4.957,35.211,7.038"/>
	<path style="fill:none;stroke:#000000;stroke-width:15;stroke-linecap:round;stroke-linejoin:round;stroke-miterlimit:10;" d="&#10;&#9;&#9;M116.021,453.08c-35.385,3.973-71.396,9.662-108.503,17.473L7.504,24.678c13.493,4.384,27.073,8.402,40.726,12.054"/>
	<path style="fill:none;stroke:#000000;stroke-width:15;stroke-linecap:round;stroke-linejoin:round;stroke-miterlimit:10;" d="&#10;&#9;&#9;M504.492,319.117l0,151.44c-37.18-7.827-73.261-13.523-108.713-17.498"/>
	<path style="fill:none;stroke:#000000;stroke-width:15;stroke-linecap:round;stroke-linejoin:round;stroke-miterlimit:10;" d="&#10;&#9;&#9;M395.778,51.795c36.668-6.472,72.995-15.511,108.713-27.117l0,261.752"/>
	<path style="fill:none;stroke:#000000;stroke-width:15;stroke-linecap:round;stroke-linejoin:round;stroke-miterlimit:10;" d="&#10;&#9;&#9;M116.62,111.064c-7.905,1.414-14.17,7.56-15.76,15.403c-2.686-0.865-5.55-1.333-8.523-1.333c-15.333,0-27.763,12.43-27.763,27.763&#10;&#9;&#9;s12.43,27.763,27.763,27.763c7.697,0,14.662-3.133,19.691-8.192"/>
	
		<line style="fill:none;stroke:#000000;stroke-width:15;stroke-linecap:round;stroke-linejoin:round;stroke-miterlimit:10;" x1="504.481" y1="411.492" x2="460.089" y2="411.492"/>
	<path style="fill:none;stroke:#000000;stroke-width:15;stroke-linecap:round;stroke-linejoin:round;stroke-miterlimit:10;" d="&#10;&#9;&#9;M460.089,338.009c9.786,0,17.718,7.933,17.718,17.718c0,0.09-0.001,0.179-0.002,0.268c8.314,1.461,14.632,8.717,14.632,17.45&#10;&#9;&#9;c0,0.858-0.061,1.701-0.179,2.526c5.41,2.612,9.759,7.076,12.223,12.569"/>
	<g>
		
			<polyline style="fill:none;stroke:#000000;stroke-width:15;stroke-linecap:round;stroke-linejoin:round;stroke-miterlimit:10;" points="&#10;&#9;&#9;&#9;395.778,131.931 457.902,131.931 457.902,411.492 395.778,411.492 &#9;&#9;"/>
		<g>
			
				<polyline style="fill:none;stroke:#000000;stroke-width:15;stroke-linecap:round;stroke-linejoin:round;stroke-miterlimit:10;" points="&#10;&#9;&#9;&#9;&#9;395.778,162.994 426.84,162.994 426.84,194.056 395.778,194.056 &#9;&#9;&#9;"/>
			
				<polyline style="fill:none;stroke:#000000;stroke-width:15;stroke-linecap:round;stroke-linejoin:round;stroke-miterlimit:10;" points="&#10;&#9;&#9;&#9;&#9;395.778,225.118 426.84,225.118 426.84,256.18 395.778,256.18 &#9;&#9;&#9;"/>
			
				<polyline style="fill:none;stroke:#000000;stroke-width:15;stroke-linecap:round;stroke-linejoin:round;stroke-miterlimit:10;" points="&#10;&#9;&#9;&#9;&#9;395.778,287.243 426.84,287.243 426.84,318.305 395.778,318.305 &#9;&#9;&#9;"/>
			
				<polyline style="fill:none;stroke:#000000;stroke-width:15;stroke-linecap:round;stroke-linejoin:round;stroke-miterlimit:10;" points="&#10;&#9;&#9;&#9;&#9;395.778,349.367 426.84,349.367 426.84,380.429 395.778,380.429 &#9;&#9;&#9;"/>
		</g>
	</g>
	<g>
		
			<polyline style="fill:none;stroke:#000000;stroke-width:15;stroke-linecap:round;stroke-linejoin:round;stroke-miterlimit:10;" points="&#10;&#9;&#9;&#9;116.62,411.492 69.624,411.492 69.624,225.118 116.62,225.118 &#9;&#9;"/>
		
			<line style="fill:none;stroke:#000000;stroke-width:15;stroke-linecap:round;stroke-linejoin:round;stroke-miterlimit:10;" x1="104.409" y1="256.18" x2="116.62" y2="256.18"/>
		
			<line style="fill:none;stroke:#000000;stroke-width:15;stroke-linecap:round;stroke-linejoin:round;stroke-miterlimit:10;" x1="104.409" y1="287.243" x2="116.62" y2="287.243"/>
		
			<line style="fill:none;stroke:#000000;stroke-width:15;stroke-linecap:round;stroke-linejoin:round;stroke-miterlimit:10;" x1="104.409" y1="318.305" x2="116.62" y2="318.305"/>
		
			<line style="fill:none;stroke:#000000;stroke-width:15;stroke-linecap:round;stroke-linejoin:round;stroke-miterlimit:10;" x1="104.409" y1="349.367" x2="116.62" y2="349.367"/>
		
			<line style="fill:none;stroke:#000000;stroke-width:15;stroke-linecap:round;stroke-linejoin:round;stroke-miterlimit:10;" x1="104.409" y1="380.429" x2="116.62" y2="380.429"/>
	</g>
	<g>
		<path style="fill:none;stroke:#000000;stroke-width:15;stroke-linecap:round;stroke-linejoin:round;stroke-miterlimit:10;" d="&#10;&#9;&#9;&#9;M375.778,504.496h-239.56c-11.046,0-20-8.954-20-20V27.5c0-11.046,8.954-20,20-20h239.56c11.046,0,20,8.954,20,20v456.996&#10;&#9;&#9;&#9;C395.778,495.542,386.824,504.496,375.778,504.496z"/>
		<path style="fill:none;stroke:#000000;stroke-width:15;stroke-linecap:round;stroke-linejoin:round;stroke-miterlimit:10;" d="&#10;&#9;&#9;&#9;M357.716,38.562h-39.593l-13.497,15.592H207.37l-13.497-15.592H154.28c-3.866,0-7,3.134-7,7v389.809c0,3.866,3.134,7,7,7h203.436&#10;&#9;&#9;&#9;c3.866,0,7-3.134,7-7V45.562C364.716,41.696,361.582,38.562,357.716,38.562z"/>
		
			<line style="fill:none;stroke:#000000;stroke-width:15;stroke-linecap:round;stroke-linejoin:round;stroke-miterlimit:10;" x1="232.701" y1="473.434" x2="279.294" y2="473.434"/>
	</g>
	
		<line style="fill:none;stroke:#000000;stroke-width:15;stroke-linecap:round;stroke-linejoin:round;stroke-miterlimit:10;" x1="7.514" y1="411.492" x2="69.622" y2="411.492"/>
	<path style="fill:none;stroke:#000000;stroke-width:15;stroke-linecap:round;stroke-linejoin:round;stroke-miterlimit:10;" d="&#10;&#9;&#9;M69.622,355.996c0.001-0.089,0.002-0.179,0.002-0.268c0-9.786-7.933-17.718-17.718-17.718c-9.786,0-17.718,7.933-17.718,17.718&#10;&#9;&#9;c0,0.09,0.001,0.179,0.002,0.268c-8.314,1.461-14.632,8.717-14.632,17.45c0,0.858,0.061,1.701,0.179,2.526&#10;&#9;&#9;c-5.41,2.612-9.759,7.076-12.223,12.569"/>
	<g>
		
			<polyline style="fill:none;stroke:#000000;stroke-width:15;stroke-linecap:round;stroke-linejoin:round;stroke-miterlimit:10;" points="&#10;&#9;&#9;&#9;216.358,395.961 178.342,395.961 178.342,172.154 &#9;&#9;"/>
		
			<line style="fill:none;stroke:#000000;stroke-width:15;stroke-linecap:round;stroke-linejoin:round;stroke-miterlimit:10;" x1="294.826" y1="395.961" x2="249.044" y2="395.961"/>
		
			<line style="fill:none;stroke:#000000;stroke-width:15;stroke-linecap:round;stroke-linejoin:round;stroke-miterlimit:10;" x1="224.936" y1="162.994" x2="294.826" y2="162.994"/>
		<g>
			<g>
				<g>
					
						<line style="fill:none;stroke:#000000;stroke-width:15;stroke-linecap:round;stroke-linejoin:round;" x1="210.151" y1="204.803" x2="210.656" y2="204.803"/>
					
						<line style="fill:none;stroke:#000000;stroke-width:15;stroke-linecap:round;stroke-linejoin:round;stroke-dasharray:0.8181,25.5186;" x1="236.175" y1="204.803" x2="249.752" y2="204.803"/>
					
						<line style="fill:none;stroke:#000000;stroke-width:15;stroke-linecap:round;stroke-linejoin:round;" x1="262.511" y1="204.803" x2="263.016" y2="204.803"/>
				</g>
			</g>
			<g>
				<g>
					
						<line style="fill:none;stroke:#000000;stroke-width:15;stroke-linecap:round;stroke-linejoin:round;" x1="210.151" y1="242.14" x2="210.656" y2="242.14"/>
					
						<line style="fill:none;stroke:#000000;stroke-width:15;stroke-linecap:round;stroke-linejoin:round;stroke-dasharray:0.8181,25.5186;" x1="236.175" y1="242.14" x2="249.752" y2="242.14"/>
					
						<line style="fill:none;stroke:#000000;stroke-width:15;stroke-linecap:round;stroke-linejoin:round;" x1="262.511" y1="242.14" x2="263.016" y2="242.14"/>
				</g>
			</g>
			<g>
				<g>
					
						<line style="fill:none;stroke:#000000;stroke-width:15;stroke-linecap:round;stroke-linejoin:round;" x1="210.151" y1="279.477" x2="210.656" y2="279.477"/>
					
						<line style="fill:none;stroke:#000000;stroke-width:15;stroke-linecap:round;stroke-linejoin:round;stroke-dasharray:0.8181,25.5186;" x1="236.175" y1="279.477" x2="249.752" y2="279.477"/>
					
						<line style="fill:none;stroke:#000000;stroke-width:15;stroke-linecap:round;stroke-linejoin:round;" x1="262.511" y1="279.477" x2="263.016" y2="279.477"/>
				</g>
			</g>
			<g>
				<g>
					
						<line style="fill:none;stroke:#000000;stroke-width:15;stroke-linecap:round;stroke-linejoin:round;" x1="210.151" y1="316.814" x2="210.656" y2="316.814"/>
					
						<line style="fill:none;stroke:#000000;stroke-width:15;stroke-linecap:round;stroke-linejoin:round;stroke-dasharray:0.8181,25.5186;" x1="236.175" y1="316.814" x2="249.752" y2="316.814"/>
					
						<line style="fill:none;stroke:#000000;stroke-width:15;stroke-linecap:round;stroke-linejoin:round;" x1="262.511" y1="316.814" x2="263.016" y2="316.814"/>
				</g>
			</g>
			<g>
				<g>
					
						<line style="fill:none;stroke:#000000;stroke-width:15;stroke-linecap:round;stroke-linejoin:round;" x1="210.151" y1="354.151" x2="210.656" y2="354.151"/>
					
						<line style="fill:none;stroke:#000000;stroke-width:15;stroke-linecap:round;stroke-linejoin:round;stroke-dasharray:0.8181,25.5186;" x1="236.175" y1="354.151" x2="249.752" y2="354.151"/>
					
						<line style="fill:none;stroke:#000000;stroke-width:15;stroke-linecap:round;stroke-linejoin:round;" x1="262.511" y1="354.151" x2="263.016" y2="354.151"/>
				</g>
			</g>
		</g>
	</g>
	<g>
		
			<line style="fill:none;stroke:#000000;stroke-width:15;stroke-linecap:round;stroke-linejoin:round;stroke-miterlimit:10;" x1="147.28" y1="209.587" x2="178.342" y2="209.587"/>
		
			<line style="fill:none;stroke:#000000;stroke-width:15;stroke-linecap:round;stroke-linejoin:round;stroke-miterlimit:10;" x1="178.342" y1="395.961" x2="147.28" y2="395.961"/>
	</g>
	<g>
		
			<polyline style="fill:none;stroke:#000000;stroke-width:15;stroke-linecap:round;stroke-linejoin:round;stroke-miterlimit:10;" points="&#10;&#9;&#9;&#9;364.716,395.961 294.829,395.961 294.829,116.4 364.716,116.4 &#9;&#9;"/>
		<g>
			
				<polyline style="fill:none;stroke:#000000;stroke-width:15;stroke-linecap:round;stroke-linejoin:round;stroke-miterlimit:10;" points="&#10;&#9;&#9;&#9;&#9;364.716,178.525 325.891,178.525 325.891,147.462 364.716,147.462 &#9;&#9;&#9;"/>
			
				<polyline style="fill:none;stroke:#000000;stroke-width:15;stroke-linecap:round;stroke-linejoin:round;stroke-miterlimit:10;" points="&#10;&#9;&#9;&#9;&#9;364.716,240.649 325.891,240.649 325.891,209.587 364.716,209.587 &#9;&#9;&#9;"/>
			
				<polyline style="fill:none;stroke:#000000;stroke-width:15;stroke-linecap:round;stroke-linejoin:round;stroke-miterlimit:10;" points="&#10;&#9;&#9;&#9;&#9;364.716,302.774 325.891,302.774 325.891,271.712 364.716,271.712 &#9;&#9;&#9;"/>
			
				<polyline style="fill:none;stroke:#000000;stroke-width:15;stroke-linecap:round;stroke-linejoin:round;stroke-miterlimit:10;" points="&#10;&#9;&#9;&#9;&#9;364.716,364.898 325.891,364.898 325.891,333.836 364.716,333.836 &#9;&#9;&#9;"/>
		</g>
	</g>
	<path style="fill:none;stroke:#000000;stroke-width:15;stroke-linecap:round;stroke-linejoin:round;stroke-miterlimit:10;" d="&#10;&#9;&#9;M147.28,185.369c1.907,0.414,3.887,0.633,5.918,0.633c12.638,0,23.304-8.445,26.662-20c5.387,3.576,11.851,5.659,18.801,5.659&#10;&#9;&#9;c18.8,0,34.04-15.24,34.04-34.04c0-18.8-15.24-34.04-34.04-34.04c-1.624,0-3.222,0.114-4.786,0.334&#10;&#9;&#9;c-3.686-11.009-14.082-18.943-26.332-18.943c-7.993,0-15.197,3.378-20.263,8.785"/>
</g>















</svg>
